<svg width="25" height="25" viewBox="0 0 25 25" fill="none" xmlns="http://www.w3.org/2000/svg">
<path d="M12.5 2.08325C11.132 2.08325 9.7775 2.35269 8.5137 2.87617C7.24989 3.39966 6.10156 4.16695 5.13429 5.13422C3.18078 7.08773 2.08332 9.73725 2.08332 12.4999C2.07421 14.9053 2.90706 17.238 4.43748 19.0937L2.35415 21.177C2.20961 21.3235 2.1117 21.5095 2.07277 21.7116C2.03383 21.9136 2.05563 22.1227 2.1354 22.3124C2.22192 22.4998 2.36217 22.6573 2.53836 22.7649C2.71455 22.8725 2.91873 22.9253 3.12498 22.9166H12.5C15.2627 22.9166 17.9122 21.8191 19.8657 19.8656C21.8192 17.9121 22.9166 15.2626 22.9166 12.4999C22.9166 9.73725 21.8192 7.08773 19.8657 5.13422C17.9122 3.18072 15.2627 2.08325 12.5 2.08325ZM12.5 20.8333H5.6354L6.60415 19.8645C6.79816 19.6693 6.90706 19.4053 6.90706 19.1301C6.90706 18.8549 6.79816 18.5909 6.60415 18.3958C5.24018 17.0333 4.39079 15.2401 4.2007 13.3216C4.01062 11.4031 4.49159 9.47805 5.56168 7.87442C6.63177 6.27079 8.22476 5.08779 10.0693 4.52697C11.9138 3.96616 13.8957 4.06222 15.6773 4.79879C17.4589 5.53536 18.93 6.86687 19.84 8.56647C20.75 10.2661 21.0426 12.2286 20.6678 14.1197C20.2931 16.0108 19.2743 17.7135 17.7849 18.9377C16.2956 20.1618 14.4279 20.8317 12.5 20.8333Z" fill="black"/>
</svg>
