<svg width="25" height="25" viewBox="0 0 25 25" fill="none" xmlns="http://www.w3.org/2000/svg">
<path d="M20.8333 8.33325H14.9874L16.1572 4.82596C16.3676 4.19263 16.2614 3.49054 15.8708 2.94888C15.4801 2.40721 14.8468 2.08325 14.1791 2.08325H12.4999C12.1905 2.08325 11.8978 2.22075 11.6989 2.45825L6.80304 8.33325H4.16659C3.01763 8.33325 2.08325 9.26763 2.08325 10.4166V19.7916C2.08325 20.9405 3.01763 21.8749 4.16659 21.8749H18.028C18.4519 21.8735 18.8653 21.7435 19.2137 21.5021C19.5621 21.2607 19.8289 20.9192 19.9791 20.5228L22.851 12.8655C22.8946 12.7486 22.9168 12.6247 22.9166 12.4999V10.4166C22.9166 9.26763 21.9822 8.33325 20.8333 8.33325ZM4.16659 10.4166H6.24992V19.7916H4.16659V10.4166ZM20.8333 12.3114L18.028 19.7916H8.33325V9.752L12.9874 4.16659H14.1812L12.5541 9.04471C12.5013 9.20129 12.4865 9.3682 12.5111 9.53161C12.5357 9.69502 12.5989 9.85022 12.6954 9.98434C12.7919 10.1185 12.9191 10.2276 13.0662 10.3028C13.2134 10.378 13.3763 10.417 13.5416 10.4166H20.8333V12.3114Z" fill="black"/>
</svg>
